# xmcd
#
# Track frame offsets: 
#        150
#        12922
#        21350
#        30700
#        36787
#        51737
#        58625
#        69622
#        77522
#
# Disc length: 1099 seconds
#
# Revision: 0
# Processed by: cddbd v1.5.2PL0 Copyright (c) Steve Scherf et al.
# Submitted via: ExactAudioCopy v1.0b3
#
DISCID=75044909
DTITLE=Tarmgas - Tomma ord
DYEAR=1994
DGENRE=Punk
TTITLE0=Tomma ord
TTITLE1=Nostalgi
TTITLE2=Du
TTITLE3=Rävjakten
TTITLE4=En kungens man
TTITLE5=Fröken Sverige
TTITLE6=Ett steg fram
TTITLE7=Varför just jag?!
TTITLE8=Folkvisa tillägnad de turkiska trädockorna
EXTD=
EXTT0=
EXTT1=
EXTT2=
EXTT3=
EXTT4=
EXTT5=
EXTT6=
EXTT7=
EXTT8=
PLAYORDER=
